<mxfile host="app.diagrams.net" modified="2024-04-24T19:39:16.219Z" agent="Mozilla/5.0 (Macintosh; Intel Mac OS X 10_15_7) AppleWebKit/537.36 (KHTML, like Gecko) Chrome/122.0.0.0 Safari/537.36" etag="C2PFBHCnytG-OvudyOWi" version="24.0.2" type="device">
  <diagram id="SX_PJXYJAZK5VdDo-udl" name="Factory-Method">
    <mxGraphModel dx="571" dy="794" grid="1" gridSize="10" guides="1" tooltips="1" connect="1" arrows="1" fold="1" page="1" pageScale="1" pageWidth="850" pageHeight="1100" math="0" shadow="0">
      <root>
        <mxCell id="0" />
        <mxCell id="1" parent="0" />
        <mxCell id="5wQIs5_loRtCuQqCREa9-1" value="" style="rounded=0;whiteSpace=wrap;html=1;fillColor=#dae8fc;strokeColor=#6c8ebf;" parent="1" vertex="1">
          <mxGeometry x="110" y="140" width="790" height="500" as="geometry" />
        </mxCell>
        <mxCell id="8BXE90KrJX97DVbdxPGS-1" value="Creator" style="swimlane;fontStyle=1;align=center;verticalAlign=top;childLayout=stackLayout;horizontal=1;startSize=26;horizontalStack=0;resizeParent=1;resizeParentMax=0;resizeLast=0;collapsible=1;marginBottom=0;whiteSpace=wrap;html=1;shadow=0;textShadow=0;fillColor=none;fontColor=#333333;strokeColor=#666666;" parent="1" vertex="1">
          <mxGeometry x="280" y="240" width="180" height="110" as="geometry" />
        </mxCell>
        <mxCell id="8BXE90KrJX97DVbdxPGS-2" value="..." style="text;strokeColor=none;fillColor=none;align=left;verticalAlign=top;spacingLeft=4;spacingRight=4;overflow=hidden;rotatable=0;points=[[0,0.5],[1,0.5]];portConstraint=eastwest;whiteSpace=wrap;html=1;shadow=0;textShadow=0;" parent="8BXE90KrJX97DVbdxPGS-1" vertex="1">
          <mxGeometry y="26" width="180" height="26" as="geometry" />
        </mxCell>
        <mxCell id="8BXE90KrJX97DVbdxPGS-3" value="" style="line;strokeWidth=1;fillColor=none;align=left;verticalAlign=middle;spacingTop=-1;spacingLeft=3;spacingRight=3;rotatable=0;labelPosition=right;points=[];portConstraint=eastwest;strokeColor=inherit;shadow=0;textShadow=0;" parent="8BXE90KrJX97DVbdxPGS-1" vertex="1">
          <mxGeometry y="52" width="180" height="8" as="geometry" />
        </mxCell>
        <mxCell id="8BXE90KrJX97DVbdxPGS-24" style="edgeStyle=orthogonalEdgeStyle;rounded=0;orthogonalLoop=1;jettySize=auto;html=1;dashed=1;endArrow=open;endFill=0;" parent="8BXE90KrJX97DVbdxPGS-1" source="8BXE90KrJX97DVbdxPGS-4" edge="1">
          <mxGeometry relative="1" as="geometry">
            <mxPoint x="400" y="84.99999999999989" as="targetPoint" />
          </mxGeometry>
        </mxCell>
        <mxCell id="8BXE90KrJX97DVbdxPGS-4" value="+ someOperation():&lt;div&gt;+ createProduct(): Product&lt;br&gt;&lt;/div&gt;" style="text;strokeColor=none;fillColor=none;align=left;verticalAlign=top;spacingLeft=4;spacingRight=4;overflow=hidden;rotatable=0;points=[[0,0.5],[1,0.5]];portConstraint=eastwest;whiteSpace=wrap;html=1;shadow=0;textShadow=0;" parent="8BXE90KrJX97DVbdxPGS-1" vertex="1">
          <mxGeometry y="60" width="180" height="50" as="geometry" />
        </mxCell>
        <mxCell id="8BXE90KrJX97DVbdxPGS-5" value="ConcreteCreatorA" style="swimlane;fontStyle=1;align=center;verticalAlign=top;childLayout=stackLayout;horizontal=1;startSize=26;horizontalStack=0;resizeParent=1;resizeParentMax=0;resizeLast=0;collapsible=1;marginBottom=0;whiteSpace=wrap;html=1;shadow=0;textShadow=0;fillColor=none;" parent="1" vertex="1">
          <mxGeometry x="155" y="460" width="205" height="86" as="geometry" />
        </mxCell>
        <mxCell id="8BXE90KrJX97DVbdxPGS-6" value="..." style="text;strokeColor=none;fillColor=none;align=left;verticalAlign=top;spacingLeft=4;spacingRight=4;overflow=hidden;rotatable=0;points=[[0,0.5],[1,0.5]];portConstraint=eastwest;whiteSpace=wrap;html=1;shadow=0;textShadow=0;" parent="8BXE90KrJX97DVbdxPGS-5" vertex="1">
          <mxGeometry y="26" width="205" height="26" as="geometry" />
        </mxCell>
        <mxCell id="8BXE90KrJX97DVbdxPGS-7" value="" style="line;strokeWidth=1;fillColor=none;align=left;verticalAlign=middle;spacingTop=-1;spacingLeft=3;spacingRight=3;rotatable=0;labelPosition=right;points=[];portConstraint=eastwest;strokeColor=inherit;shadow=0;textShadow=0;" parent="8BXE90KrJX97DVbdxPGS-5" vertex="1">
          <mxGeometry y="52" width="205" height="8" as="geometry" />
        </mxCell>
        <mxCell id="8BXE90KrJX97DVbdxPGS-8" value="+ createProduct: Product" style="text;strokeColor=none;fillColor=none;align=left;verticalAlign=top;spacingLeft=4;spacingRight=4;overflow=hidden;rotatable=0;points=[[0,0.5],[1,0.5]];portConstraint=eastwest;whiteSpace=wrap;html=1;shadow=0;textShadow=0;" parent="8BXE90KrJX97DVbdxPGS-5" vertex="1">
          <mxGeometry y="60" width="205" height="26" as="geometry" />
        </mxCell>
        <mxCell id="8BXE90KrJX97DVbdxPGS-9" value="ConcreteCreatorB" style="swimlane;fontStyle=1;align=center;verticalAlign=top;childLayout=stackLayout;horizontal=1;startSize=26;horizontalStack=0;resizeParent=1;resizeParentMax=0;resizeLast=0;collapsible=1;marginBottom=0;whiteSpace=wrap;html=1;shadow=0;textShadow=0;fillColor=none;" parent="1" vertex="1">
          <mxGeometry x="390" y="460" width="205" height="86" as="geometry" />
        </mxCell>
        <mxCell id="8BXE90KrJX97DVbdxPGS-10" value="..." style="text;strokeColor=none;fillColor=none;align=left;verticalAlign=top;spacingLeft=4;spacingRight=4;overflow=hidden;rotatable=0;points=[[0,0.5],[1,0.5]];portConstraint=eastwest;whiteSpace=wrap;html=1;shadow=0;textShadow=0;" parent="8BXE90KrJX97DVbdxPGS-9" vertex="1">
          <mxGeometry y="26" width="205" height="26" as="geometry" />
        </mxCell>
        <mxCell id="8BXE90KrJX97DVbdxPGS-11" value="" style="line;strokeWidth=1;fillColor=none;align=left;verticalAlign=middle;spacingTop=-1;spacingLeft=3;spacingRight=3;rotatable=0;labelPosition=right;points=[];portConstraint=eastwest;strokeColor=inherit;shadow=0;textShadow=0;" parent="8BXE90KrJX97DVbdxPGS-9" vertex="1">
          <mxGeometry y="52" width="205" height="8" as="geometry" />
        </mxCell>
        <mxCell id="8BXE90KrJX97DVbdxPGS-12" value="+ createProduct(): Product" style="text;strokeColor=none;fillColor=none;align=left;verticalAlign=top;spacingLeft=4;spacingRight=4;overflow=hidden;rotatable=0;points=[[0,0.5],[1,0.5]];portConstraint=eastwest;whiteSpace=wrap;html=1;shadow=0;textShadow=0;" parent="8BXE90KrJX97DVbdxPGS-9" vertex="1">
          <mxGeometry y="60" width="205" height="26" as="geometry" />
        </mxCell>
        <mxCell id="8BXE90KrJX97DVbdxPGS-14" value="&lt;p style=&quot;margin:0px;margin-top:4px;text-align:center;&quot;&gt;&amp;lt;&amp;lt;interface&amp;gt;&amp;gt;&lt;br&gt;&lt;b&gt;Product&lt;/b&gt;&lt;/p&gt;&lt;hr size=&quot;1&quot; style=&quot;border-style:solid;&quot;&gt;&lt;div style=&quot;height:2px;&quot;&gt;&lt;/div&gt;" style="verticalAlign=top;align=left;overflow=fill;html=1;whiteSpace=wrap;fillColor=#fff2cc;strokeColor=#d6b656;" parent="1" vertex="1">
          <mxGeometry x="680" y="300" width="140" height="70" as="geometry" />
        </mxCell>
        <mxCell id="8BXE90KrJX97DVbdxPGS-22" style="edgeStyle=orthogonalEdgeStyle;rounded=0;orthogonalLoop=1;jettySize=auto;html=1;entryX=0.5;entryY=1;entryDx=0;entryDy=0;endArrow=block;endFill=0;dashed=1;" parent="1" source="8BXE90KrJX97DVbdxPGS-15" target="8BXE90KrJX97DVbdxPGS-14" edge="1">
          <mxGeometry relative="1" as="geometry">
            <Array as="points">
              <mxPoint x="685" y="395" />
              <mxPoint x="750" y="395" />
            </Array>
          </mxGeometry>
        </mxCell>
        <mxCell id="8BXE90KrJX97DVbdxPGS-15" value="Concrete&lt;br&gt;ProductA" style="html=1;whiteSpace=wrap;fillColor=#f5f5f5;fontColor=#333333;strokeColor=#666666;" parent="1" vertex="1">
          <mxGeometry x="630" y="420" width="110" height="50" as="geometry" />
        </mxCell>
        <mxCell id="8BXE90KrJX97DVbdxPGS-16" value="Concrete&lt;br&gt;ProductB" style="html=1;whiteSpace=wrap;fillColor=#f5f5f5;fontColor=#333333;strokeColor=#666666;" parent="1" vertex="1">
          <mxGeometry x="760" y="420" width="110" height="50" as="geometry" />
        </mxCell>
        <mxCell id="8BXE90KrJX97DVbdxPGS-17" value="&lt;b&gt;return new &lt;/b&gt;ConcreteProductA()" style="shape=note;whiteSpace=wrap;html=1;backgroundOutline=1;darkOpacity=0.05;size=11;fillColor=#ffe6cc;strokeColor=#d79b00;" parent="1" vertex="1">
          <mxGeometry x="125" y="580" width="200" height="30" as="geometry" />
        </mxCell>
        <mxCell id="8BXE90KrJX97DVbdxPGS-25" style="edgeStyle=orthogonalEdgeStyle;rounded=0;orthogonalLoop=1;jettySize=auto;html=1;entryX=0;entryY=0.5;entryDx=0;entryDy=0;endArrow=none;endFill=0;dashed=1;fillColor=#f5f5f5;strokeColor=#666666;" parent="1" source="8BXE90KrJX97DVbdxPGS-18" target="8BXE90KrJX97DVbdxPGS-4" edge="1">
          <mxGeometry relative="1" as="geometry" />
        </mxCell>
        <mxCell id="8BXE90KrJX97DVbdxPGS-18" value="Product p = createProduct()&lt;br&gt;p.doStuff()" style="shape=note;whiteSpace=wrap;html=1;backgroundOutline=1;darkOpacity=0.05;size=11;align=left;fillColor=#ffe6cc;strokeColor=#d79b00;" parent="1" vertex="1">
          <mxGeometry x="160" y="160" width="170" height="30" as="geometry" />
        </mxCell>
        <mxCell id="8BXE90KrJX97DVbdxPGS-20" value="+ doStuff():" style="text;strokeColor=none;fillColor=none;align=left;verticalAlign=top;spacingLeft=4;spacingRight=4;overflow=hidden;rotatable=0;points=[[0,0.5],[1,0.5]];portConstraint=eastwest;whiteSpace=wrap;html=1;" parent="1" vertex="1">
          <mxGeometry x="691" y="339" width="130" height="30" as="geometry" />
        </mxCell>
        <mxCell id="8BXE90KrJX97DVbdxPGS-23" style="edgeStyle=orthogonalEdgeStyle;rounded=0;orthogonalLoop=1;jettySize=auto;html=1;entryX=0.454;entryY=1.033;entryDx=0;entryDy=0;entryPerimeter=0;endArrow=block;endFill=0;dashed=1;" parent="1" source="8BXE90KrJX97DVbdxPGS-16" target="8BXE90KrJX97DVbdxPGS-20" edge="1">
          <mxGeometry relative="1" as="geometry">
            <Array as="points">
              <mxPoint x="815" y="395" />
              <mxPoint x="750" y="395" />
            </Array>
          </mxGeometry>
        </mxCell>
        <mxCell id="8BXE90KrJX97DVbdxPGS-28" style="edgeStyle=orthogonalEdgeStyle;rounded=0;orthogonalLoop=1;jettySize=auto;html=1;entryX=0.55;entryY=-0.026;entryDx=0;entryDy=0;entryPerimeter=0;endArrow=none;endFill=0;dashed=1;fillColor=#f5f5f5;strokeColor=#666666;" parent="1" source="8BXE90KrJX97DVbdxPGS-5" target="8BXE90KrJX97DVbdxPGS-17" edge="1">
          <mxGeometry relative="1" as="geometry" />
        </mxCell>
        <mxCell id="8BXE90KrJX97DVbdxPGS-31" style="edgeStyle=orthogonalEdgeStyle;rounded=0;orthogonalLoop=1;jettySize=auto;html=1;entryX=0.52;entryY=0.98;entryDx=0;entryDy=0;entryPerimeter=0;endArrow=block;endFill=0;shadow=0;textShadow=0;" parent="1" source="8BXE90KrJX97DVbdxPGS-9" target="8BXE90KrJX97DVbdxPGS-4" edge="1">
          <mxGeometry relative="1" as="geometry" />
        </mxCell>
        <mxCell id="8BXE90KrJX97DVbdxPGS-32" style="edgeStyle=orthogonalEdgeStyle;rounded=0;orthogonalLoop=1;jettySize=auto;html=1;entryX=0.52;entryY=0.996;entryDx=0;entryDy=0;entryPerimeter=0;endArrow=block;endFill=0;shadow=0;textShadow=0;" parent="1" source="8BXE90KrJX97DVbdxPGS-5" target="8BXE90KrJX97DVbdxPGS-4" edge="1">
          <mxGeometry relative="1" as="geometry" />
        </mxCell>
        <mxCell id="8BXE90KrJX97DVbdxPGS-34" value="&lt;font style=&quot;font-size: 16px;&quot;&gt;1&lt;/font&gt;" style="ellipse;whiteSpace=wrap;html=1;aspect=fixed;fillColor=#f8cecc;strokeColor=#b85450;" parent="1" vertex="1">
          <mxGeometry x="810" y="280" width="30" height="30" as="geometry" />
        </mxCell>
        <mxCell id="8BXE90KrJX97DVbdxPGS-35" value="&lt;font style=&quot;font-size: 16px;&quot;&gt;2&lt;/font&gt;" style="ellipse;whiteSpace=wrap;html=1;aspect=fixed;fillColor=#f8cecc;strokeColor=#b85450;" parent="1" vertex="1">
          <mxGeometry x="735" y="430" width="30" height="30" as="geometry" />
        </mxCell>
        <mxCell id="8BXE90KrJX97DVbdxPGS-36" value="&lt;font style=&quot;font-size: 16px;&quot;&gt;3&lt;/font&gt;" style="ellipse;whiteSpace=wrap;html=1;aspect=fixed;fillColor=#f8cecc;strokeColor=#b85450;shadow=0;textShadow=0;" parent="1" vertex="1">
          <mxGeometry x="435" y="220" width="30" height="30" as="geometry" />
        </mxCell>
        <mxCell id="8BXE90KrJX97DVbdxPGS-37" value="&lt;font style=&quot;font-size: 16px;&quot;&gt;4&lt;/font&gt;" style="ellipse;whiteSpace=wrap;html=1;aspect=fixed;fillColor=#f8cecc;strokeColor=#b85450;shadow=0;textShadow=0;" parent="1" vertex="1">
          <mxGeometry x="360" y="488" width="30" height="30" as="geometry" />
        </mxCell>
        <mxCell id="5wQIs5_loRtCuQqCREa9-2" value="Factory-Method" style="text;html=1;align=center;verticalAlign=middle;whiteSpace=wrap;rounded=0;fillColor=#f8cecc;strokeColor=#b85450;fontSize=14;" parent="1" vertex="1">
          <mxGeometry x="490" y="150" width="110" height="30" as="geometry" />
        </mxCell>
      </root>
    </mxGraphModel>
  </diagram>
</mxfile>
